<svg xmlns="http://www.w3.org/2000/svg" xmlns:xlink="http://www.w3.org/1999/xlink" viewBox="0 0 48.61 52.92"><defs><style>.cls-1{fill:#2faf61;}.cls-2{fill:url(#未命名的渐变_2);}.cls-3{fill:url(#未命名的渐变_21);}.cls-4{fill:#fff;}</style><linearGradient id="未命名的渐变_2" x1="1.76" y1="-2.17" x2="33.42" y2="11.39" gradientUnits="userSpaceOnUse"><stop offset="0" stop-color="#298660" stop-opacity="0"/><stop offset="0.79" stop-color="#006e41"/></linearGradient><linearGradient id="未命名的渐变_21" x1="7.31" y1="45.78" x2="48.61" y2="45.78" gradientUnits="userSpaceOnUse"><stop offset="0" stop-color="#006e41"/><stop offset="0.32" stop-color="#0e764c" stop-opacity="0.65"/><stop offset="0.77" stop-color="#22825a" stop-opacity="0.18"/><stop offset="1" stop-color="#298660" stop-opacity="0"/></linearGradient></defs><title>资源 3</title><g id="图层_2" data-name="图层 2"><g id="图层_1-2" data-name="图层 1"><path class="cls-1" d="M46.48,12.21A7.13,7.13,0,0,0,41.47,0H7.13a7.14,7.14,0,0,0,0,14.27H25.61l-.08.09L2.13,40.7a7.13,7.13,0,0,0,5,12.22H41.47a7.14,7.14,0,1,0,0-14.27H23S46.48,12.21,46.48,12.21Z"/><path class="cls-2" d="M35.55,3.15A7.12,7.12,0,0,1,41.3,0H7.13a7.14,7.14,0,0,0,0,14.27H25.61"/><path class="cls-3" d="M12.25,50.73a7.06,7.06,0,0,1-4.94,2.18H41.47a7.14,7.14,0,1,0,0-14.27H23"/><path class="cls-4" d="M6.13,10.75l-3.2-3.2a.59.59,0,0,1,0-.83l3.2-3.2a.58.58,0,0,1,1,.41v6.41A.58.58,0,0,1,6.13,10.75Z"/><path class="cls-4" d="M42,42.4l3.2,3.21a.57.57,0,0,1,0,.82L42,49.64a.59.59,0,0,1-1-.42v-6.4A.59.59,0,0,1,42,42.4Z"/></g></g></svg>